<?xml version="1.0" encoding="utf-8"?>
<!-- Generator: Adobe Illustrator 26.3.1, SVG Export Plug-In . SVG Version: 6.00 Build 0)  -->
<svg version="1.1" id="Layer_1" xmlns="http://www.w3.org/2000/svg" xmlns:xlink="http://www.w3.org/1999/xlink" x="0px" y="0px"
	 viewBox="0 0 1000 1000" style="enable-background:new 0 0 1000 1000;" xml:space="preserve">
<style type="text/css">
	.st0{fill:#FFFFFF;}
</style>
<g>
	<path class="st0" d="M982.9,557.1c-14.2-68.4-54.7-112.5-122.1-131.5c-25.6-7.2-52-4.5-78.1-4.5c-7,0-11.3-1.8-15.4-7.9
		c-22.9-34-45.2-68.4-69.8-101.2c-42.1-56.1-99.3-85.6-169.4-87.5c-52.6-1.5-105.4-1.4-158,0c-65.6,1.8-120.6,28.2-162.2,78.9
		c-29.2,35.5-52.7,75.4-79,113.1c-3.2,4.5-6.7,7.8-12,9.9c-47.5,18.9-78.9,53-94.2,101.7c-10.5,33.5-8.3,68.2-5.5,102.3
		c2.3,28.3,27.2,47.4,55.8,47.8c9.1,0.1,18.3,0.5,27.4-0.1c7.8-0.6,10.3,1.4,11,9.9c3.9,51.6,45.5,89.5,96.3,88.6
		c49.6-0.9,89.7-40.2,92.1-90.9c0.3-6.6,2.7-7.6,8.4-7.5c32.2,0.2,64.3,0.1,96.5,0.1c2.8,0,5.7,0,8.5,0c13.6-0.1,22.5-7.5,22.6-18.8
		c0.1-11.3-8.8-19-22.3-19.1c-37.8-0.1-75.7-0.2-113.5,0.2c-6.9,0.1-10.4-2.1-14-8c-33.4-54.4-109.6-60.8-151.4-13
		c-8.6,22-26.6,22.9-46.1,20.9c-4.4-0.4-8.8,0-13.2-0.1c-14.2-0.3-21.3-7.4-21.4-21.8c-0.1-15.1-0.1-30.3,0-45.4
		c0.5-52.6,32.6-97,82.6-113.7c7.9-2.6,13.6-7,18.3-13.8c23.3-34.5,46.7-68.9,70.5-103c37.4-53.5,89-80.4,154.2-80.7
		c45.7-0.3,91.5,0,137.2-0.1c67.5-0.1,120.4,27.6,158.5,83.4c23.3,34.1,46.7,68.1,69.9,102.2c5.3,7.8,11.9,11.4,21.3,11.3
		c19.2-0.3,38.5-0.3,57.7,0c56.7,0.7,106.1,40.2,119.4,95.3c6.5,27.1,2.6,54.6,3.6,82c0.2,5.2-3.5,4.3-6.5,4.3
		c-16.4,0-32.8-0.3-49.2,0.2c-5.8,0.2-8.8-1.8-11.8-6.7c-37.6-61.9-124.7-61.9-162.2,0c-3,5-6,6.7-11.8,6.7
		c-38.2-0.3-76.3-0.2-114.5-0.1c-14.1,0-22.4,7-22.6,18.6c-0.2,12.1,8.2,19.2,22.9,19.2c33.7,0.1,67.5,0.4,101.2-0.2
		c8.9-0.2,11.5,2,12.1,11.1c2.9,48.5,43.8,86.9,92.4,87.5c50.5,0.6,92.3-37.8,95.4-88.3c0.5-8.1,2.6-10.6,10.9-10.3
		c18.6,0.7,37.2-0.3,55.8,0.4c11.7,0.5,20.2-3.2,25.7-13.4c0-34.1,0-68.1,0-102.2C982.3,561.6,983.3,559,982.9,557.1z M205.9,625.3
		c31.2,0.1,56.3,25.5,56.3,56.8c0,31.3-25.2,56.6-56.4,56.7c-31.4,0.1-57.4-26-57.1-57.2C149.2,650.5,174.9,625.2,205.9,625.3z
		 M798.5,738.8c-31.1-0.1-56.4-25.5-56.5-56.7c-0.1-31.2,25.2-56.7,56.3-56.8c31.2-0.2,56.6,24.9,57,56.2
		C855.6,712.9,830,738.8,798.5,738.8z"/>
	<path class="st0" d="M475.6,458.7c31.8,0.1,63.6,0,95.5,0c32.5,0,64.9-0.1,97.4,0.1c8.2,0,15-2.5,19.1-9.8
		c4.1-7.4,2.9-14.5-1.7-21.3c-16.3-23.6-31.9-47.6-48.9-70.7c-20.8-28.2-48.9-45.8-83.1-53.6c-25.9-5.9-52.1-2.9-78.2-3.5
		c-16.3-0.3-23.2,6.5-23.3,22.7c-0.2,37.8-0.2,75.6,0,113.4C452.4,452.1,459.3,458.7,475.6,458.7z M490.2,344.3c0-3-0.7-6.6,4.3-6.7
		c24.9-0.2,49.8-1.5,73.1,10.1c17.3,8.6,31.6,20.6,42.5,36.5c8,11.6,15.9,23.3,25.1,36.7c-39.8,0-77.5,0.1-115.2-0.1
		c-9.7-0.1-22.2,4.2-28.2-1.9c-5.5-5.6-1.4-18-1.6-27.4C490,375.8,490.1,360,490.2,344.3z"/>
	<path class="st0" d="M414.4,321.9c-0.2-15.2-7.1-21.9-22.1-22.1c-5-0.1-10.1-0.1-15.1,0c-49.7,0.9-89.5,21.1-118.5,61.4
		c-15.5,21.5-29.9,43.6-45,65.4c-4.9,7-6.7,14.3-2.5,22.1c4.2,7.9,11.3,10.1,19.9,10c26.8-0.2,53.6-0.1,80.4-0.1
		c26.8,0,53.6,0.1,80.4,0c15.6,0,22.5-6.7,22.7-22.4c0.2-20.2,0.1-40.3,0.1-60.5C414.4,357.8,414.6,339.8,414.4,321.9z M376.5,413.5
		c0,3.8,0.6,7.5-5.4,7.5c-35.2-0.2-70.4-0.1-107.9-0.1c11.3-16.1,20.5-30.8,31.3-44.3c18.4-23,43-35.2,72.2-38.7
		c6.8-0.8,10.3,0,10,8.4C376.2,368.7,376.6,391.1,376.5,413.5z"/>
	<path class="st0" d="M494.3,534.6c10.2-0.7,17.2-7.6,17.9-17.2c0.7-9.9-5-18.2-14.9-19.8c-9.9-1.6-20.1-1.7-30,0.1
		c-9.8,1.7-15.5,10.2-14.7,20c0.8,9.3,7.6,16.1,17.2,16.8c4.1,0.3,8.2,0.1,12.2,0.1c0,0,0,0,0,0
		C486.1,534.7,490.2,534.9,494.3,534.6z"/>
	<path class="st0" d="M502.9,640.5c-10.5-0.5-19.3,8-19.5,18.5c-0.1,10.3,7.8,18.7,18,19.1c10.3,0.4,19.5-8.2,19.7-18.6
		C521.3,649.7,512.9,640.9,502.9,640.5z"/>
	<path class="st0" d="M205.4,700.9c10.2,0.2,18.6-7.8,19-18.1c0.4-10.7-7.8-19.5-18.4-19.6c-9.9-0.2-18.8,8.1-19.2,18.1
		C186.3,691.4,195.1,700.7,205.4,700.9z"/>
	<path class="st0" d="M799.5,663.2c-10.6-0.5-19.5,7.9-19.6,18.7c-0.1,10.4,8,18.8,18.3,19.1c10.2,0.2,18.8-7.9,19.1-18.2
		C817.6,672.3,809.8,663.7,799.5,663.2z"/>
</g>
</svg>
